<svg width="2516" height="426" viewBox="0 0 2516 426" fill="none" xmlns="http://www.w3.org/2000/svg">
<g clip-path="url(#clip0_900_527)">
<rect width="2516" height="426" fill="#141D16"/>
<path d="M1606 311.802V242H1617.52V271.915L1647.53 242H1661.78L1633.62 269.821L1662.43 311.802H1648.4L1625.35 277.898L1617.52 285.676V311.802H1606Z" fill="white"/>
<path d="M1690.19 313.002C1684.9 313.002 1680.19 311.938 1676.05 309.811C1672 307.617 1668.81 304.592 1666.49 300.736C1664.17 296.881 1663.01 292.393 1663.01 287.274C1663.01 282.089 1664.13 277.535 1666.38 273.613C1668.7 269.691 1671.89 266.633 1675.95 264.439C1680.08 262.245 1684.86 261.148 1690.3 261.148C1695.59 261.148 1700.19 262.245 1704.11 264.439C1708.02 266.566 1711.06 269.425 1713.24 273.015C1715.41 276.605 1716.5 280.56 1716.5 284.881C1716.5 285.546 1716.46 286.277 1716.39 287.075C1716.39 287.806 1716.36 288.637 1716.28 289.568H1674.32C1674.68 294.354 1676.38 298.011 1679.43 300.537C1682.54 302.997 1686.13 304.227 1690.19 304.227C1693.45 304.227 1696.17 303.562 1698.34 302.232C1700.59 300.836 1702.26 298.975 1703.35 296.648H1714.87C1713.42 301.301 1710.52 305.19 1706.17 308.315C1701.9 311.439 1696.57 313.002 1690.19 313.002ZM1690.19 269.824C1686.35 269.824 1682.94 270.888 1679.97 273.015C1677 275.076 1675.19 278.2 1674.53 282.388H1704.98C1704.76 278.533 1703.27 275.475 1700.52 273.214C1697.76 270.954 1694.32 269.824 1690.19 269.824Z" fill="white"/>
<path d="M1725.18 311.8V262.34H1735.51L1736.49 272.91C1738.37 269.652 1740.98 267.093 1744.32 265.232C1747.72 263.304 1751.82 262.34 1756.6 262.34V273.409H1753.45C1750.26 273.409 1747.4 273.907 1744.86 274.904C1742.39 275.835 1740.4 277.464 1738.88 279.79C1737.43 282.051 1736.7 284.012 1736.7 288.067V311.8H1725.18Z" fill="white"/>
<path d="M1763.48 311.805V262.345H1773.7L1774.57 271.02C1776.24 267.962 1778.67 265.569 1781.86 263.841C1785.12 262.046 1788.85 261.148 1793.06 261.148C1799.58 261.148 1804.69 263.01 1808.39 266.733C1812.16 270.455 1814.04 276.006 1814.04 283.385V311.805H1802.63V284.482C1802.63 274.909 1798.35 270.123 1789.8 270.123C1785.52 270.123 1781.97 271.519 1779.14 274.311C1776.39 277.103 1775.01 281.092 1775.01 286.277V311.805H1763.48Z" fill="white"/>
<path d="M1831.89 254.84L1829.08 249.218L1826.23 254.84H1831.89ZM1830.77 245.383L1838.71 261.273H1835.17L1833.4 257.794H1824.75L1822.98 261.273H1819.42L1827.36 245.383H1830.77Z" fill="#E7C23E"/>
<path d="M1844.98 245.383V261.273H1841.72V245.383H1844.98Z" fill="#E7C23E"/>
<path d="M1887.35 312.6C1885.52 312.6 1883.97 312.233 1882.7 311.5C1881.47 310.733 1880.52 309.683 1879.85 308.35H1879.55L1879.1 312H1874.55V276H1879.85V290.4C1880.45 289.4 1881.4 288.517 1882.7 287.75C1884 286.983 1885.55 286.6 1887.35 286.6C1889.42 286.6 1891.27 287.1 1892.9 288.1C1894.53 289.067 1895.82 290.517 1896.75 292.45C1897.72 294.383 1898.2 296.767 1898.2 299.6C1898.2 302.433 1897.72 304.817 1896.75 306.75C1895.82 308.683 1894.53 310.15 1892.9 311.15C1891.27 312.117 1889.42 312.6 1887.35 312.6ZM1886.25 307.55C1888.15 307.55 1889.72 306.9 1890.95 305.6C1892.22 304.267 1892.85 302.283 1892.85 299.65C1892.85 296.983 1892.22 294.983 1890.95 293.65C1889.72 292.317 1888.15 291.65 1886.25 291.65C1884.35 291.65 1882.77 292.317 1881.5 293.65C1880.27 294.95 1879.65 296.933 1879.65 299.6C1879.65 302.233 1880.27 304.217 1881.5 305.55C1882.77 306.883 1884.35 307.55 1886.25 307.55ZM1904.83 312V307.4H1910.88V293.45C1910.88 292.35 1910.35 291.8 1909.28 291.8H1905.33V287.2H1911.28C1912.65 287.2 1913.76 287.6 1914.63 288.4C1915.5 289.167 1915.93 290.25 1915.93 291.65V292.25H1916.18C1916.55 290.383 1917.33 288.983 1918.53 288.05C1919.76 287.083 1921.55 286.6 1923.88 286.6H1927.73V292.2H1922.33C1920.36 292.2 1918.85 292.883 1917.78 294.25C1916.71 295.617 1916.18 297.25 1916.18 299.15V307.4H1923.88V312H1904.83ZM1945.46 283.4C1944.29 283.4 1943.31 283.033 1942.51 282.3C1941.74 281.533 1941.36 280.6 1941.36 279.5C1941.36 278.4 1941.74 277.483 1942.51 276.75C1943.31 276.017 1944.29 275.65 1945.46 275.65C1946.66 275.65 1947.64 276.017 1948.41 276.75C1949.21 277.483 1949.61 278.4 1949.61 279.5C1949.61 280.6 1949.21 281.533 1948.41 282.3C1947.64 283.033 1946.66 283.4 1945.46 283.4ZM1935.51 312V307.4H1943.31V293.45C1943.31 292.35 1942.78 291.8 1941.71 291.8H1936.21V287.2H1942.66C1944.73 287.2 1946.23 287.683 1947.16 288.65C1948.13 289.583 1948.61 291.083 1948.61 293.15V307.4H1956.41V312H1935.51ZM1976.29 312.6C1973.99 312.6 1971.92 312.067 1970.09 311C1968.29 309.933 1966.87 308.433 1965.84 306.5C1964.81 304.533 1964.29 302.233 1964.29 299.6C1964.29 296.967 1964.81 294.683 1965.84 292.75C1966.91 290.817 1968.34 289.317 1970.14 288.25C1971.94 287.15 1973.99 286.6 1976.29 286.6C1979.46 286.6 1982.01 287.4 1983.94 289C1985.91 290.567 1987.16 292.733 1987.69 295.5H1982.14C1981.81 294.3 1981.12 293.35 1980.09 292.65C1979.09 291.95 1977.81 291.6 1976.24 291.6C1975.11 291.6 1974.02 291.9 1972.99 292.5C1971.99 293.1 1971.17 294 1970.54 295.2C1969.94 296.367 1969.64 297.833 1969.64 299.6C1969.64 301.333 1969.94 302.8 1970.54 304C1971.17 305.2 1971.99 306.117 1972.99 306.75C1974.02 307.35 1975.11 307.65 1976.24 307.65C1977.84 307.65 1979.12 307.3 1980.09 306.6C1981.06 305.9 1981.74 304.933 1982.14 303.7H1987.69C1987.02 306.433 1985.72 308.6 1983.79 310.2C1981.86 311.8 1979.36 312.6 1976.29 312.6ZM1995.82 312V276H2001.12V297.6L2010.62 287.2H2017.27L2006.92 298.2V298.6L2018.62 312H2012.17L2001.12 299.25V312H1995.82ZM2036.1 312.6C2032.84 312.6 2030.24 311.833 2028.3 310.3C2026.37 308.767 2025.27 306.733 2025 304.2H2030.45C2030.65 305.367 2031.24 306.317 2032.2 307.05C2033.2 307.783 2034.52 308.15 2036.15 308.15C2037.72 308.15 2038.92 307.833 2039.75 307.2C2040.62 306.533 2041.05 305.767 2041.05 304.9C2041.05 303.633 2040.54 302.767 2039.5 302.3C2038.5 301.833 2037.02 301.483 2035.05 301.25C2033.35 301.05 2031.8 300.667 2030.4 300.1C2029.04 299.5 2027.95 298.7 2027.15 297.7C2026.35 296.667 2025.95 295.383 2025.95 293.85C2025.95 291.683 2026.8 289.933 2028.5 288.6C2030.2 287.267 2032.57 286.6 2035.6 286.6C2038.64 286.6 2040.99 287.283 2042.65 288.65C2044.32 290.017 2045.29 291.883 2045.55 294.25H2040.45C2040.32 293.25 2039.8 292.467 2038.9 291.9C2038 291.3 2036.89 291 2035.55 291C2034.19 291 2033.1 291.267 2032.3 291.8C2031.5 292.3 2031.1 292.967 2031.1 293.8C2031.1 295.6 2033.04 296.7 2036.9 297.1C2038.74 297.3 2040.37 297.65 2041.8 298.15C2043.24 298.617 2044.37 299.367 2045.2 300.4C2046.04 301.4 2046.45 302.817 2046.45 304.65C2046.49 306.15 2046.05 307.5 2045.15 308.7C2044.29 309.9 2043.07 310.85 2041.5 311.55C2039.97 312.25 2038.17 312.6 2036.1 312.6Z" fill="white"/>
<path d="M1400.73 215.328H1126V1061.67C1126 1078.93 1139.99 1092.92 1157.25 1092.92H2537.05C2554.31 1092.92 2568.31 1078.93 2568.31 1061.67V520.578H2293.58V786.943C2293.58 804.204 2279.59 818.197 2262.33 818.197H1431.98C1414.72 818.197 1400.73 804.204 1400.73 786.943V215.328Z" fill="url(#paint0_linear_900_527)"/>
<path d="M2400.39 520.594H2675.12V-325.746C2675.12 -343.007 2661.12 -357 2643.86 -357L1264.06 -357C1246.8 -357 1232.81 -343.007 1232.81 -325.746V215.344H1507.54V-51.0211C1507.54 -68.2823 1521.53 -82.2753 1538.79 -82.2753L2369.14 -82.2753C2386.4 -82.2753 2400.39 -68.2823 2400.39 -51.0211V520.594Z" fill="url(#paint1_linear_900_527)"/>
<path d="M2103.17 250.246H2083V312.368C2083 313.635 2084.03 314.663 2085.29 314.663H2186.57C2187.84 314.663 2188.87 313.635 2188.87 312.368V272.652H2168.7V292.203C2168.7 293.47 2167.67 294.497 2166.41 294.497H2105.46C2104.19 294.497 2103.17 293.47 2103.17 292.203V250.246Z" fill="url(#paint2_linear_900_527)"/>
<path d="M2168.83 314.664H2189V252.542C2189 251.275 2187.97 250.248 2186.71 250.248H2085.43C2084.16 250.248 2083.13 251.275 2083.13 252.542V292.258H2103.3V272.707C2103.3 271.44 2104.33 270.413 2105.59 270.413H2166.54C2167.81 270.413 2168.83 271.44 2168.83 272.707V314.664Z" fill="url(#paint3_linear_900_527)"/>
</g>
<defs>
<linearGradient id="paint0_linear_900_527" x1="1245.83" y1="246.932" x2="1245.83" y2="518.22" gradientUnits="userSpaceOnUse">
<stop stop-color="#E7C23E"/>
<stop offset="1" stop-color="#DFBD40"/>
</linearGradient>
<linearGradient id="paint1_linear_900_527" x1="1335.94" y1="97.384" x2="1337.85" y2="291.024" gradientUnits="userSpaceOnUse">
<stop stop-color="#E7C23E"/>
<stop offset="1" stop-color="#F5D14E" stop-opacity="0.8"/>
</linearGradient>
<linearGradient id="paint2_linear_900_527" x1="2091.8" y1="252.566" x2="2091.8" y2="272.479" gradientUnits="userSpaceOnUse">
<stop stop-color="#E7C23E"/>
<stop offset="1" stop-color="#DFBD40"/>
</linearGradient>
<linearGradient id="paint3_linear_900_527" x1="2090.7" y1="283.6" x2="2090.84" y2="297.813" gradientUnits="userSpaceOnUse">
<stop stop-color="#E7C23E"/>
<stop offset="1" stop-color="#F5D14E" stop-opacity="0.8"/>
</linearGradient>
<clipPath id="clip0_900_527">
<rect width="2516" height="426" fill="white"/>
</clipPath>
</defs>
</svg>
