<svg width="2516" height="426" viewBox="0 0 2516 426" fill="none" xmlns="http://www.w3.org/2000/svg">
<g clip-path="url(#clip0_894_516)">
<rect width="2516" height="426" fill="#141D16"/>
<path d="M1606 311.802V242H1617.52V271.915L1647.53 242H1661.78L1633.62 269.821L1662.43 311.802H1648.4L1625.35 277.898L1617.52 285.676V311.802H1606Z" fill="white"/>
<path d="M1690.19 313.002C1684.9 313.002 1680.19 311.938 1676.05 309.811C1672 307.617 1668.81 304.592 1666.49 300.736C1664.17 296.881 1663.01 292.393 1663.01 287.274C1663.01 282.089 1664.13 277.535 1666.38 273.613C1668.7 269.691 1671.89 266.633 1675.95 264.439C1680.08 262.245 1684.86 261.148 1690.3 261.148C1695.59 261.148 1700.19 262.245 1704.11 264.439C1708.02 266.566 1711.06 269.425 1713.24 273.015C1715.41 276.605 1716.5 280.56 1716.5 284.881C1716.5 285.546 1716.46 286.277 1716.39 287.075C1716.39 287.806 1716.36 288.637 1716.28 289.568H1674.32C1674.68 294.354 1676.38 298.011 1679.43 300.537C1682.54 302.997 1686.13 304.227 1690.19 304.227C1693.45 304.227 1696.17 303.562 1698.34 302.232C1700.59 300.836 1702.26 298.975 1703.35 296.648H1714.87C1713.42 301.301 1710.52 305.19 1706.17 308.315C1701.9 311.439 1696.57 313.002 1690.19 313.002ZM1690.19 269.824C1686.35 269.824 1682.94 270.888 1679.97 273.015C1677 275.076 1675.19 278.2 1674.53 282.388H1704.98C1704.76 278.533 1703.27 275.475 1700.52 273.214C1697.76 270.954 1694.32 269.824 1690.19 269.824Z" fill="white"/>
<path d="M1725.18 311.802V262.342H1735.51L1736.49 272.912C1738.37 269.654 1740.98 267.095 1744.32 265.234C1747.72 263.306 1751.82 262.342 1756.6 262.342V273.41H1753.45C1750.26 273.41 1747.4 273.909 1744.86 274.906C1742.39 275.837 1740.4 277.466 1738.88 279.792C1737.43 282.053 1736.7 284.014 1736.7 288.069V311.802H1725.18Z" fill="white"/>
<path d="M1763.48 311.805V262.345H1773.7L1774.57 271.02C1776.24 267.962 1778.67 265.569 1781.86 263.841C1785.12 262.046 1788.85 261.148 1793.06 261.148C1799.58 261.148 1804.69 263.01 1808.39 266.733C1812.16 270.455 1814.04 276.006 1814.04 283.385V311.805H1802.63V284.482C1802.63 274.909 1798.35 270.123 1789.8 270.123C1785.52 270.123 1781.97 271.519 1779.14 274.311C1776.39 277.103 1775.01 281.092 1775.01 286.277V311.805H1763.48Z" fill="white"/>
<path d="M1831.89 254.842L1829.08 249.22L1826.23 254.842H1831.89ZM1830.77 245.385L1838.71 261.274H1835.17L1833.4 257.796H1824.75L1822.98 261.274H1819.42L1827.36 245.385H1830.77Z" fill="#E7C23E"/>
<path d="M1844.98 245.385V261.274H1841.72V245.385H1844.98Z" fill="#E7C23E"/>
<path d="M1886.35 312.6C1884.05 312.6 1881.98 312.067 1880.15 311C1878.35 309.933 1876.93 308.433 1875.9 306.5C1874.87 304.533 1874.35 302.233 1874.35 299.6C1874.35 296.967 1874.87 294.683 1875.9 292.75C1876.97 290.817 1878.4 289.317 1880.2 288.25C1882 287.15 1884.05 286.6 1886.35 286.6C1889.52 286.6 1892.07 287.4 1894 289C1895.97 290.567 1897.22 292.733 1897.75 295.5H1892.2C1891.87 294.3 1891.18 293.35 1890.15 292.65C1889.15 291.95 1887.87 291.6 1886.3 291.6C1885.17 291.6 1884.08 291.9 1883.05 292.5C1882.05 293.1 1881.23 294 1880.6 295.2C1880 296.367 1879.7 297.833 1879.7 299.6C1879.7 301.333 1880 302.8 1880.6 304C1881.23 305.2 1882.05 306.117 1883.05 306.75C1884.08 307.35 1885.17 307.65 1886.3 307.65C1887.9 307.65 1889.18 307.3 1890.15 306.6C1891.12 305.9 1891.8 304.933 1892.2 303.7H1897.75C1897.08 306.433 1895.78 308.6 1893.85 310.2C1891.92 311.8 1889.42 312.6 1886.35 312.6ZM1915.98 312.6C1913.61 312.6 1911.5 312.067 1909.63 311C1907.76 309.933 1906.3 308.433 1905.23 306.5C1904.16 304.533 1903.63 302.233 1903.63 299.6C1903.63 296.967 1904.16 294.683 1905.23 292.75C1906.3 290.783 1907.76 289.267 1909.63 288.2C1911.5 287.133 1913.63 286.6 1916.03 286.6C1918.43 286.6 1920.55 287.133 1922.38 288.2C1924.25 289.267 1925.7 290.783 1926.73 292.75C1927.8 294.683 1928.33 296.967 1928.33 299.6C1928.33 302.233 1927.8 304.533 1926.73 306.5C1925.66 308.433 1924.2 309.933 1922.33 311C1920.5 312.067 1918.38 312.6 1915.98 312.6ZM1915.98 307.55C1917.25 307.55 1918.41 307.267 1919.48 306.7C1920.55 306.133 1921.4 305.267 1922.03 304.1C1922.7 302.9 1923.03 301.4 1923.03 299.6C1923.03 297.767 1922.7 296.267 1922.03 295.1C1921.4 293.933 1920.55 293.067 1919.48 292.5C1918.45 291.933 1917.3 291.65 1916.03 291.65C1914.76 291.65 1913.6 291.933 1912.53 292.5C1911.46 293.067 1910.6 293.933 1909.93 295.1C1909.3 296.267 1908.98 297.767 1908.98 299.6C1908.98 302.333 1909.66 304.35 1911.03 305.65C1912.43 306.917 1914.08 307.55 1915.98 307.55ZM1934.86 312V287.2H1939.46L1939.91 290.9H1940.16C1940.83 289.7 1941.86 288.683 1943.26 287.85C1944.66 287.017 1946.28 286.6 1948.11 286.6C1951.14 286.6 1953.43 287.517 1954.96 289.35C1956.49 291.183 1957.26 293.883 1957.26 297.45V312H1951.96V298.1C1951.96 296.033 1951.53 294.433 1950.66 293.3C1949.79 292.167 1948.43 291.6 1946.56 291.6C1944.73 291.6 1943.19 292.217 1941.96 293.45C1940.76 294.683 1940.16 296.467 1940.16 298.8V312H1934.86ZM1978.64 312C1976.21 312 1974.27 311.417 1972.84 310.25C1971.41 309.05 1970.69 306.933 1970.69 303.9V291.7H1964.44V287.2H1968.14C1969.84 287.2 1970.84 286.367 1971.14 284.7L1971.89 280.7H1975.99V287.2H1985.79V291.7H1975.99V303.8C1975.99 305.1 1976.27 306.017 1976.84 306.55C1977.44 307.05 1978.46 307.3 1979.89 307.3H1985.69V312H1978.64ZM2006.22 312.6C2003.82 312.6 2001.71 312.067 1999.87 311C1998.04 309.9 1996.61 308.383 1995.57 306.45C1994.54 304.517 1994.02 302.267 1994.02 299.7C1994.02 297.1 1994.52 294.817 1995.52 292.85C1996.56 290.883 1997.99 289.35 1999.82 288.25C2001.69 287.15 2003.84 286.6 2006.27 286.6C2008.67 286.6 2010.74 287.15 2012.47 288.25C2014.21 289.317 2015.54 290.75 2016.47 292.55C2017.44 294.35 2017.92 296.333 2017.92 298.5C2017.92 298.833 2017.92 299.2 2017.92 299.6C2017.92 299.967 2017.91 300.383 2017.87 300.85H1999.22C1999.39 303.15 2000.14 304.9 2001.47 306.1C2002.81 307.267 2004.37 307.85 2006.17 307.85C2007.74 307.85 2008.97 307.533 2009.87 306.9C2010.81 306.233 2011.49 305.333 2011.92 304.2H2017.27C2016.67 306.567 2015.42 308.567 2013.52 310.2C2011.62 311.8 2009.19 312.6 2006.22 312.6ZM2006.22 291.2C2004.59 291.2 2003.14 291.7 2001.87 292.7C2000.61 293.667 1999.79 295.033 1999.42 296.8H2012.62C2012.49 295.133 2011.84 293.783 2010.67 292.75C2009.51 291.717 2008.02 291.2 2006.22 291.2ZM2024.8 312V287.2H2029.4L2029.85 290.9H2030.1C2030.77 289.7 2031.8 288.683 2033.2 287.85C2034.6 287.017 2036.22 286.6 2038.05 286.6C2041.09 286.6 2043.37 287.517 2044.9 289.35C2046.44 291.183 2047.2 293.883 2047.2 297.45V312H2041.9V298.1C2041.9 296.033 2041.47 294.433 2040.6 293.3C2039.74 292.167 2038.37 291.6 2036.5 291.6C2034.67 291.6 2033.14 292.217 2031.9 293.45C2030.7 294.683 2030.1 296.467 2030.1 298.8V312H2024.8ZM2068.58 312C2066.15 312 2064.22 311.417 2062.78 310.25C2061.35 309.05 2060.63 306.933 2060.63 303.9V291.7H2054.38V287.2H2058.08C2059.78 287.2 2060.78 286.367 2061.08 284.7L2061.83 280.7H2065.93V287.2H2075.73V291.7H2065.93V303.8C2065.93 305.1 2066.22 306.017 2066.78 306.55C2067.38 307.05 2068.4 307.3 2069.83 307.3H2075.63V312H2068.58ZM2114.24 312V307.4H2122.54V282.25C2122.54 281.15 2122.01 280.6 2120.94 280.6H2114.94V276H2121.89C2123.83 276 2125.29 276.517 2126.29 277.55C2127.33 278.55 2127.84 280.017 2127.84 281.95V307.4H2136.19V312H2114.24ZM2155.32 283.4C2154.16 283.4 2153.17 283.033 2152.37 282.3C2151.61 281.533 2151.22 280.6 2151.22 279.5C2151.22 278.4 2151.61 277.483 2152.37 276.75C2153.17 276.017 2154.16 275.65 2155.32 275.65C2156.52 275.65 2157.51 276.017 2158.27 276.75C2159.07 277.483 2159.47 278.4 2159.47 279.5C2159.47 280.6 2159.07 281.533 2158.27 282.3C2157.51 283.033 2156.52 283.4 2155.32 283.4ZM2145.37 312V307.4H2153.17V293.45C2153.17 292.35 2152.64 291.8 2151.57 291.8H2146.07V287.2H2152.52C2154.59 287.2 2156.09 287.683 2157.02 288.65C2157.99 289.583 2158.47 291.083 2158.47 293.15V307.4H2166.27V312H2145.37ZM2187.15 312.6C2185.32 312.6 2183.77 312.233 2182.5 311.5C2181.27 310.733 2180.32 309.683 2179.65 308.35H2179.35L2178.9 312H2174.35V276H2179.65V290.4C2180.25 289.4 2181.2 288.517 2182.5 287.75C2183.8 286.983 2185.35 286.6 2187.15 286.6C2189.22 286.6 2191.07 287.1 2192.7 288.1C2194.34 289.067 2195.62 290.517 2196.55 292.45C2197.52 294.383 2198 296.767 2198 299.6C2198 302.433 2197.52 304.817 2196.55 306.75C2195.62 308.683 2194.34 310.15 2192.7 311.15C2191.07 312.117 2189.22 312.6 2187.15 312.6ZM2186.05 307.55C2187.95 307.55 2189.52 306.9 2190.75 305.6C2192.02 304.267 2192.65 302.283 2192.65 299.65C2192.65 296.983 2192.02 294.983 2190.75 293.65C2189.52 292.317 2187.95 291.65 2186.05 291.65C2184.15 291.65 2182.57 292.317 2181.3 293.65C2180.07 294.95 2179.45 296.933 2179.45 299.6C2179.45 302.233 2180.07 304.217 2181.3 305.55C2182.57 306.883 2184.15 307.55 2186.05 307.55ZM2204.64 312V307.4H2210.69V293.45C2210.69 292.35 2210.15 291.8 2209.09 291.8H2205.14V287.2H2211.09C2212.45 287.2 2213.57 287.6 2214.44 288.4C2215.3 289.167 2215.74 290.25 2215.74 291.65V292.25H2215.99C2216.35 290.383 2217.14 288.983 2218.34 288.05C2219.57 287.083 2221.35 286.6 2223.69 286.6H2227.54V292.2H2222.14C2220.17 292.2 2218.65 292.883 2217.59 294.25C2216.52 295.617 2215.99 297.25 2215.99 299.15V307.4H2223.69V312H2204.64ZM2243.52 312.6C2241.55 312.6 2239.9 312.267 2238.57 311.6C2237.23 310.9 2236.23 309.983 2235.57 308.85C2234.9 307.683 2234.57 306.417 2234.57 305.05C2234.57 302.617 2235.45 300.717 2237.22 299.35C2239.02 297.983 2241.55 297.3 2244.82 297.3H2251.22V296.75C2251.22 293.017 2249.48 291.15 2246.02 291.15C2244.58 291.15 2243.37 291.467 2242.37 292.1C2241.4 292.7 2240.75 293.683 2240.42 295.05H2235.12C2235.38 292.45 2236.5 290.4 2238.47 288.9C2240.47 287.367 2242.98 286.6 2246.02 286.6C2249.68 286.6 2252.35 287.5 2254.02 289.3C2255.68 291.1 2256.52 293.583 2256.52 296.75V312H2252.02L2251.57 308.35H2251.22C2250.48 309.517 2249.57 310.517 2248.47 311.35C2247.37 312.183 2245.72 312.6 2243.52 312.6ZM2244.52 308.15C2246.68 308.15 2248.3 307.5 2249.37 306.2C2250.47 304.867 2251.07 303.183 2251.17 301.15H2245.37C2243.47 301.15 2242.12 301.467 2241.32 302.1C2240.55 302.7 2240.17 303.55 2240.17 304.65C2240.17 305.75 2240.55 306.617 2241.32 307.25C2242.12 307.85 2243.18 308.15 2244.52 308.15ZM2264.6 312V307.4H2270.65V293.45C2270.65 292.35 2270.11 291.8 2269.05 291.8H2265.1V287.2H2271.05C2272.41 287.2 2273.53 287.6 2274.4 288.4C2275.26 289.167 2275.7 290.25 2275.7 291.65V292.25H2275.95C2276.31 290.383 2277.1 288.983 2278.3 288.05C2279.53 287.083 2281.31 286.6 2283.65 286.6H2287.5V292.2H2282.1C2280.13 292.2 2278.61 292.883 2277.55 294.25C2276.48 295.617 2275.95 297.25 2275.95 299.15V307.4H2283.65V312H2264.6ZM2297.88 323L2303.78 309.95H2302.33L2292.68 287.2H2298.43L2305.83 305.35L2313.68 287.2H2319.23L2303.48 323H2297.88Z" fill="white"/>
<path d="M1400.73 215.328H1126V1061.67C1126 1078.93 1139.99 1092.92 1157.25 1092.92H2537.05C2554.31 1092.92 2568.31 1078.93 2568.31 1061.67V520.578H2293.58V786.943C2293.58 804.204 2279.59 818.197 2262.33 818.197H1431.98C1414.72 818.197 1400.73 804.204 1400.73 786.943V215.328Z" fill="url(#paint0_linear_894_516)"/>
<path d="M2400.39 520.594H2675.12V-325.746C2675.12 -343.007 2661.12 -357 2643.86 -357L1264.06 -357C1246.8 -357 1232.81 -343.007 1232.81 -325.746V215.344H1507.54V-51.0211C1507.54 -68.2823 1521.53 -82.2753 1538.79 -82.2753L2369.14 -82.2753C2386.4 -82.2753 2400.39 -68.2823 2400.39 -51.0211V520.594Z" fill="url(#paint1_linear_894_516)"/>
</g>
<defs>
<linearGradient id="paint0_linear_894_516" x1="1245.83" y1="246.932" x2="1245.83" y2="518.22" gradientUnits="userSpaceOnUse">
<stop stop-color="#E7C23E"/>
<stop offset="1" stop-color="#DFBD40"/>
</linearGradient>
<linearGradient id="paint1_linear_894_516" x1="1335.94" y1="97.384" x2="1337.85" y2="291.024" gradientUnits="userSpaceOnUse">
<stop stop-color="#E7C23E"/>
<stop offset="1" stop-color="#F5D14E" stop-opacity="0.8"/>
</linearGradient>
<clipPath id="clip0_894_516">
<rect width="2516" height="426" fill="white"/>
</clipPath>
</defs>
</svg>
